<svg overflow="visible" version="1.0" xml:space="preserve" xmlns="http://www.w3.org/2000/svg" viewBox="0 0 32 37"><g transform="translate(-1.555 -1.858)"><linearGradient id="a" x1="9.064" x2="22.541" y1="5.836" y2="26.342" gradientTransform="matrix(1.0672 0 0 -.9893 4.508 30.926)" gradientUnits="userSpaceOnUse"><stop stop-color="#F0F0EF" offset="0"/><stop stop-color="#E8E8E8" offset=".599"/><stop stop-color="#fff" offset=".828"/><stop stop-color="#D8D8D3" offset="1"/></linearGradient><path d="M2.055 37.846V2.942c0-.314.254-.567.57-.567h21.159c2.388 0 9.268 5.827 9.268 8.303v27.167a.567.567 0 0 1-.57.567H2.625a.565.565 0 0 1-.57-.566z" fill="url(#a)" stroke="#888a85"/><linearGradient id="b" x1="23.899" x2="21.568" y1="26.181" y2="23.494" gradientTransform="matrix(1 0 0 -1 6.161 30.909)" gradientUnits="userSpaceOnUse"><stop stop-color="#7C7C7C" offset="0"/><stop stop-color="#B8B8B8" offset="1"/></linearGradient><path d="M24.189 9.43c4.108.159 7.304-.978 8.867 1.446.304-3.968-7.254-8.828-9.285-8.498.813.498.418 7.052.418 7.052z" fill="url(#b)" stroke="#868a84"/><linearGradient id="c" x1="31.671" x2="32.445" y1="36.921" y2="38.07" gradientUnits="userSpaceOnUse"><stop stop-color="#fff" offset="0"/><stop stop-color="#fff" offset="1"/></linearGradient><path d="M25.249 8.406c2.754-.019 4.106-.49 5.702.19-1.299-1.881-4.358-3.344-5.728-4.028.188.775.026 3.838.026 3.838z" fill="none" opacity=".369" stroke="url(#c)"/></g></svg>