<svg version="1.0" xmlns="http://www.w3.org/2000/svg" viewBox="0 0 32 37"><defs><linearGradient id="a" x1="9.064" x2="22.541" y1="5.836" y2="26.342" gradientTransform="matrix(1.0672 0 0 -.9893 10.703 33.607)" gradientUnits="userSpaceOnUse"><stop stop-color="#F0F0EF" offset="0"/><stop stop-color="#E8E8E8" offset=".599"/><stop stop-color="#fff" offset=".828"/><stop stop-color="#D8D8D3" offset="1"/></linearGradient><linearGradient id="b" x1="23.899" x2="21.568" y1="26.181" y2="23.494" gradientTransform="matrix(1 0 0 -1 12.356 33.59)" gradientUnits="userSpaceOnUse"><stop stop-color="#7C7C7C" offset="0"/><stop stop-color="#B8B8B8" offset="1"/></linearGradient><linearGradient id="c" x1="31.671" x2="32.445" y1="36.921" y2="38.07" gradientTransform="translate(6.194 2.68)" gradientUnits="userSpaceOnUse"><stop stop-color="#fff" offset="0"/><stop stop-color="#fff" offset="1"/></linearGradient></defs><path d="M8.25 21.075V5.623c0-.314.253-.567.57-.567h21.158c2.388 0 9.268 5.827 9.268 8.303v5.583l-3.585 4.408-2.773-3.536-5.127 3.415-5.944-3.238-5.723 3.06zm30.996 3.868v15.583a.567.567 0 0 1-.57.567H8.82a.565.565 0 0 1-.57-.566V25.075l7.845 2.629 5.657-2.652 4.242 3.005 5.834-3.237 3.712 3.945z" fill="url(#a)" stroke="#888a85" transform="translate(-7.75 -4.538)"/><path d="M30.383 12.111c4.108.159 7.304-.978 8.867 1.446.304-3.968-7.254-8.828-9.285-8.498.813.498.418 7.052.418 7.052z" fill="url(#b)" stroke="#868a84" transform="translate(-7.75 -4.538)"/><path d="M31.443 11.087c2.754-.019 4.106-.49 5.702.19-1.299-1.881-4.358-3.344-5.728-4.028.188.775.026 3.838.026 3.838z" fill="none" opacity=".369" stroke="url(#c)" transform="translate(-7.75 -4.538)"/></svg>