<svg xmlns="http://www.w3.org/2000/svg" baseProfile="basic" viewBox="0 0 64 64"><path d="M31.188 0C13.905.438 0 14.612 0 32c0 17.664 14.336 32 32 32s32-14.336 32-32S49.664 0 32 0c-.276 0-.538-.007-.812 0zm-.032 5.5c.284-.009.558 0 .844 0 14.628 0 26.5 11.872 26.5 26.5S46.628 58.5 32 58.5 5.5 46.628 5.5 32c0-14.342 11.423-26.049 25.656-26.5z"/><path d="M58.5 32a26.5 26.5 0 1 1-53 0 26.5 26.5 0 1 1 53 0z" fill="#fff"/><path d="M25.645 38.743c2.061 2.882 8.351 3.09 10.51 1.868.793-.448.991-1.746.991-2.627 0-.604-.159-1.078-.477-1.424-.336-.345-1.19-1.221-2.179-1.48-5.016-1.294-8.491-2.911-9.851-4.084-1.696-1.467-1.97-2.425-1.97-4.98 0-2.554.735-4.695 2.395-6.231s4.071-2.304 7.233-2.304c3.021 0 7.268.798 9.34 3.256l-3.453 3.756c-1.948-1.635-3.396-1.782-5.781-1.782-1.501 0-2.283.215-2.919.647-.636.414-.954.958-.954 1.631 0 .604.292 1.104.875 1.501.583.414 2.106 1.036 5.144 1.864 3.409.932 5.723 2.063 6.942 3.391 1.201 1.329 1.802 3.098 1.802 5.307 0 2.658-.937 4.85-2.809 6.576-1.855 1.726-4.138 3.067-7.423 3.067-4.229 0-9.874-1.494-11.431-4.255"/><path d="m59.345 40.107-2.408 5.28L5.815 22.351l2.406-5.28 51.124 23.035zM30.375 12.875v6.844h3.25v-6.844h-3.25zm0 32.094v6.156h3.25v-6.156h-3.25z"/></svg>