<svg xmlns="http://www.w3.org/2000/svg" version="1.0" viewBox="0 0 64 64"><path style="opacity:1;fill:#000;fill-opacity:1;fill-rule:nonzero;stroke:none;stroke-width:259.50698853;stroke-linecap:butt;stroke-linejoin:round;stroke-miterlimit:4;stroke-dasharray:none;stroke-dashoffset:0;stroke-opacity:1" d="M31.188 0C13.904.438 0 14.612 0 32c0 17.664 14.336 32 32 32s32-14.336 32-32S49.664 0 32 0c-.276 0-.538-.007-.813 0zm-.032 5.5c.284-.009.558 0 .844 0 14.628 0 26.5 11.872 26.5 26.5S46.628 58.5 32 58.5 5.5 46.628 5.5 32c0-14.342 11.423-26.049 25.656-26.5z"/><path style="opacity:1;fill:#fff;fill-opacity:1;fill-rule:nonzero;stroke:none;stroke-width:259.50698853;stroke-linecap:butt;stroke-linejoin:round;stroke-miterlimit:4;stroke-dasharray:none;stroke-dashoffset:0;stroke-opacity:1" d="M30.01 31.878a26.564 26.564 0 1 1-53.129 0 26.564 26.564 0 1 1 53.129 0z" transform="matrix(.99758 0 0 .99758 28.563 .199)"/><path style="opacity:1;fill:#000;fill-opacity:1;fill-rule:nonzero;stroke:none;stroke-width:259.50698853;stroke-linecap:butt;stroke-linejoin:round;stroke-miterlimit:4;stroke-dashoffset:0;stroke-opacity:1" d="M20.785 24.432h23.563v5.78H20.785v-5.78zm0 10.447h23.563v5.78H20.785v-5.78z"/></svg>