<svg xmlns="http://www.w3.org/2000/svg" version="1.0" viewBox="0 0 64 64"><path style="opacity:1;fill:#fff;fill-opacity:1;fill-rule:nonzero;stroke:none;stroke-width:.89999998;stroke-linecap:butt;stroke-linejoin:round;stroke-miterlimit:4;stroke-dasharray:none;stroke-dashoffset:0;stroke-opacity:1" d="M60.372 30.834a28.113 28.113 0 1 1-56.226 0 28.113 28.113 0 1 1 56.226 0z" transform="translate(-.13 .907)"/><path d="M31.943 0c8.99 0 16.58 3.096 22.771 9.286C60.904 15.476 64 23.047 64 32s-3.048 16.438-9.144 22.457C48.418 60.819 40.78 64 31.943 64c-8.686 0-16.182-3.143-22.486-9.429C3.152 48.285 0 40.763 0 32c0-8.762 3.143-16.342 9.429-22.742C15.601 3.085 23.104 0 31.943 0zm.086 5.772c-7.257 0-13.4 2.553-18.428 7.658C8.38 18.725 5.772 24.915 5.772 32c0 7.086 2.59 13.22 7.77 18.4 5.181 5.18 11.352 7.771 18.515 7.771 7.162 0 13.371-2.609 18.629-7.829 5.029-4.876 7.543-10.99 7.543-18.343 0-7.314-2.553-13.504-7.657-18.572-5.106-5.104-11.286-7.656-18.543-7.656zM16.971 40.686V22.972h8.8c4.343 0 6.514 2 6.514 6 0 .686-.106 1.343-.314 1.972-.21.629-.572 1.256-1.086 1.885-.513.63-1.285 1.143-2.314 1.543-1.028.4-2.248.6-3.657.6h-3.486v5.714h-4.457zm4.4-14.401v5.371h3.772c.914 0 1.6-.257 2.057-.772.458-.513.686-1.152.686-1.914 0-1.79-.952-2.686-2.858-2.686h-3.657v.001zm12.115 14.401V22.972h6.858c2.818 0 5.027.724 6.628 2.172 1.6 1.447 2.4 3.676 2.4 6.685 0 3.01-.8 5.238-2.4 6.686-1.6 1.448-3.81 2.171-6.628 2.171h-6.858zm4.4-14v10.286h2.572c1.562 0 2.694-.466 3.4-1.4.704-.933 1.057-2.18 1.057-3.743 0-1.562-.353-2.81-1.058-3.742-.704-.933-1.856-1.4-3.456-1.4h-2.515v-.001z"/></svg>