<svg viewBox="0 0 50 56.25" xmlns="http://www.w3.org/2000/svg" xmlns:xlink="http://www.w3.org/1999/xlink"><defs><path id="a" d="M-204.24 61.913c0-.962-.368-1.921-1.105-2.65l-2.664-2.664c-1.472-1.473-3.854-1.473-5.311 0l-15.92 15.92-15.92-15.92c-1.473-1.473-3.855-1.473-5.312 0l-2.664 2.664c-1.473 1.473-1.473 3.855 0 5.312l21.232 21.232a3.764 3.764 0 0 0 5.327 0l21.232-21.232a3.755 3.755 0 0 0 1.105-2.662z"/><path id="b" d="M-204.24 37.043c0-.962-.368-1.921-1.105-2.65l-2.664-2.664c-1.472-1.473-3.854-1.473-5.311 0l-15.92 15.92-15.92-15.92c-1.473-1.473-3.855-1.473-5.312 0l-2.664 2.664c-1.473 1.473-1.473 3.855 0 5.312l21.232 21.232a3.764 3.764 0 0 0 5.327 0l21.232-21.232a3.755 3.755 0 0 0 1.105-2.662z"/></defs><use transform="translate(254.24 -30.624)" width="100%" height="100%" fill="#ddd" xlink:href="#a"/><use transform="translate(254.24 -30.624)" width="100%" height="100%" fill="#ddd" xlink:href="#b"/></svg>