<svg viewBox="0 0 26 26" xmlns="http://www.w3.org/2000/svg"><circle cx="13" cy="13" r="12.523" fill="#fff"/><g transform="translate(1 1)" fill="none" fill-rule="evenodd"><circle cx="12" cy="12" r="12" stroke="#000" stroke-width="2"/><path d="m6.706 1.765 10.684 20.7" stroke="#000" stroke-linecap="square" stroke-width="2"/><path d="M19.951 7.036h-.683l-.474.473H7.267l-.278-.426h-.498l-.38.884h-.859v1.33c0 .057-.295.3-.338.368-.094.147-.204.445-.028.558.118.072.362.044.498.08.107.029.203.065.297.12 0 0 .636.254.636 1.157 0 0 0 .95-.648 2.13-.323.59-1.918 2.682-1.918 4.3 0 .67.74.578.74.578h3.767s.511-.163.511-.879l1.468-4.059s.248-.824.892-.38c.362.25 2.145.122 2.7.122.563 0 1.128-.474 1.23-.972l.14-1.14s.093-.346 1.202-.346h4.071s.642-.024.642-.764V8.84l-.688-1.33-.475-.474zm-6.233 5.749h-1.85s-.89.044-.89-.928c0-.792.598-.984.924-.984-.145 1.428.997 1.616.707.92-.29-.696.453-1.016.453-1.016l.795.007s.67.033.67.992c0 .66-.323 1.009-.81 1.009z" fill="#000" fill-rule="nonzero"/></g><ellipse cx="15.308" cy="13.363" rx="6.563" ry="6.809" fill="none"/><ellipse cx="-.112" cy="5.698" rx="8.002" ry="5.821" fill="none"/></svg>